# Blender v2.76 (sub 0) OBJ File: 'half.blend'
# www.blender.org
mtllib half.mtl
o Cube
v 0.500000 -0.500000 -0.500000
v 0.500000 -0.500000 0.500000
v -0.500000 -0.500000 0.500000
v -0.500000 -0.500000 -0.500000
v 0.500000 0.000000 -0.500000
v 0.500000 0.000000 0.500000
v -0.500000 0.000000 0.500000
v -0.500000 0.000000 -0.500000
vt 0.833333 1.000000
vt 0.833333 -0.000000
vt 1.000000 0.000000
vt 1.000000 1.000000
vt 0.666667 -0.000000
vt 0.666667 1.000000
vt 0.666667 0.500000
vt 0.500000 0.500000
vt 0.500000 -0.000000
vt 0.333333 0.500000
vt 0.333333 -0.000000
vt 0.166667 0.500000
vt 0.166667 -0.000000
vt -0.000000 0.500000
vt 0.000000 0.000000
vn 0.000000 -1.000000 0.000000
vn 0.000000 1.000000 0.000000
vn 1.000000 0.000000 0.000000
vn -0.000000 -0.000000 1.000000
vn -1.000000 -0.000000 -0.000000
vn 0.000000 0.000000 -1.000000
usemtl Material
s off
f 1/1/1 2/2/1 3/3/1 4/4/1
f 5/5/2 8/2/2 7/1/2 6/6/2
f 1/5/3 5/7/3 6/8/3 2/9/3
f 2/9/4 6/8/4 7/10/4 3/11/4
f 3/11/5 7/10/5 8/12/5 4/13/5
f 5/14/6 1/15/6 4/13/6 8/12/6
