# Blender v2.76 (sub 0) OBJ File: ''
# www.blender.org
mtllib metal_bar_6.mtl
o Cylinder.006
v 0.500000 0.000000 -0.100000
v -0.500000 0.000000 -0.100000
v -0.500000 0.019509 -0.098078
v 0.500000 0.019509 -0.098078
v -0.500000 0.038269 -0.092388
v 0.500000 0.038269 -0.092388
v -0.500000 0.055557 -0.083147
v 0.500000 0.055557 -0.083147
v -0.500000 0.070711 -0.070710
v 0.500000 0.070711 -0.070710
v -0.500000 0.083147 -0.055557
v 0.500000 0.083147 -0.055557
v -0.500000 0.092388 -0.038268
v 0.500000 0.092388 -0.038268
v -0.500000 0.098078 -0.019509
v 0.500000 0.098078 -0.019509
v -0.500000 0.100000 0.000000
v 0.500000 0.100000 0.000000
v -0.500000 0.098078 0.019509
v 0.500000 0.098078 0.019509
v -0.500000 0.092388 0.038269
v 0.500000 0.092388 0.038269
v -0.500000 0.083147 0.055557
v 0.500000 0.083147 0.055557
v -0.500000 0.070710 0.070711
v 0.500000 0.070710 0.070711
v -0.500000 0.055557 0.083147
v 0.500000 0.055557 0.083147
v -0.500000 0.038268 0.092388
v 0.500000 0.038268 0.092388
v -0.500000 0.019509 0.098078
v 0.500000 0.019509 0.098078
v -0.500000 -0.000000 0.100000
v 0.500000 -0.000000 0.100000
v -0.500000 -0.019509 0.098078
v 0.500000 -0.019509 0.098078
v -0.500000 -0.038269 0.092388
v 0.500000 -0.038269 0.092388
v -0.500000 -0.055557 0.083147
v 0.500000 -0.055557 0.083147
v -0.500000 -0.070711 0.070710
v 0.500000 -0.070711 0.070710
v -0.500000 -0.083147 0.055557
v 0.500000 -0.083147 0.055557
v -0.500000 -0.092388 0.038268
v 0.500000 -0.092388 0.038268
v -0.500000 -0.098078 0.019509
v 0.500000 -0.098078 0.019509
v -0.500000 -0.100000 -0.000000
v 0.500000 -0.100000 -0.000000
v -0.500000 -0.098078 -0.019509
v 0.500000 -0.098078 -0.019509
v -0.500000 -0.092388 -0.038269
v 0.500000 -0.092388 -0.038269
v -0.500000 -0.083147 -0.055557
v 0.500000 -0.083147 -0.055557
v -0.500000 -0.070710 -0.070711
v 0.500000 -0.070710 -0.070711
v -0.500000 -0.055557 -0.083147
v 0.500000 -0.055557 -0.083147
v -0.500000 -0.038268 -0.092388
v 0.500000 -0.038268 -0.092388
v -0.500000 -0.019509 -0.098078
v 0.500000 -0.019509 -0.098078
vn 0.000000 0.098000 -0.995200
vn 0.000000 0.290300 -0.956900
vn 0.000000 0.471400 -0.881900
vn 0.000000 0.634400 -0.773000
vn 0.000000 0.773000 -0.634400
vn 0.000000 0.881900 -0.471400
vn 0.000000 0.956900 -0.290300
vn 0.000000 0.995200 -0.098000
vn 0.000000 0.995200 0.098000
vn 0.000000 0.956900 0.290300
vn 0.000000 0.881900 0.471400
vn 0.000000 0.773000 0.634400
vn 0.000000 0.634400 0.773000
vn 0.000000 0.471400 0.881900
vn 0.000000 0.290300 0.956900
vn 0.000000 0.098000 0.995200
vn 0.000000 -0.098000 0.995200
vn 0.000000 -0.290300 0.956900
vn 0.000000 -0.471400 0.881900
vn 0.000000 -0.634400 0.773000
vn 0.000000 -0.773000 0.634400
vn 0.000000 -0.881900 0.471400
vn 0.000000 -0.956900 0.290300
vn 0.000000 -0.995200 0.098000
vn 0.000000 -0.995200 -0.098000
vn 0.000000 -0.956900 -0.290300
vn 0.000000 -0.881900 -0.471400
vn 0.000000 -0.773000 -0.634400
vn 0.000000 -0.634400 -0.773000
vn 0.000000 -0.471400 -0.881900
vn -1.000000 0.000000 0.000000
vn 0.000000 -0.098000 -0.995200
vn 0.000000 -0.290300 -0.956900
vn 1.000000 -0.000000 0.000000
usemtl None.003
s 1
f 1//1 2//1 3//1 4//1
f 4//2 3//2 5//2 6//2
f 6//3 5//3 7//3 8//3
f 8//4 7//4 9//4 10//4
f 10//5 9//5 11//5 12//5
f 12//6 11//6 13//6 14//6
f 14//7 13//7 15//7 16//7
f 16//8 15//8 17//8 18//8
f 18//9 17//9 19//9 20//9
f 20//10 19//10 21//10 22//10
f 22//11 21//11 23//11 24//11
f 24//12 23//12 25//12 26//12
f 26//13 25//13 27//13 28//13
f 28//14 27//14 29//14 30//14
f 30//15 29//15 31//15 32//15
f 32//16 31//16 33//16 34//16
f 34//17 33//17 35//17 36//17
f 36//18 35//18 37//18 38//18
f 38//19 37//19 39//19 40//19
f 40//20 39//20 41//20 42//20
f 42//21 41//21 43//21 44//21
f 44//22 43//22 45//22 46//22
f 46//23 45//23 47//23 48//23
f 48//24 47//24 49//24 50//24
f 50//25 49//25 51//25 52//25
f 52//26 51//26 53//26 54//26
f 54//27 53//27 55//27 56//27
f 56//28 55//28 57//28 58//28
f 58//29 57//29 59//29 60//29
f 60//30 59//30 61//30 62//30
f 3//31 2//31 63//31 61//31 59//31 57//31 55//31 53//31 51//31 49//31 47//31 45//31 43//31 41//31 39//31 37//31 35//31 33//31 31//31 29//31 27//31 25//31 23//31 21//31 19//31 17//31 15//31 13//31 11//31 9//31 7//31 5//31
f 64//32 63//32 2//32 1//32
f 62//33 61//33 63//33 64//33
f 1//34 4//34 6//34 8//34 10//34 12//34 14//34 16//34 18//34 20//34 22//34 24//34 26//34 28//34 30//34 32//34 34//34 36//34 38//34 40//34 42//34 44//34 46//34 48//34 50//34 52//34 54//34 56//34 58//34 60//34 62//34 64//34
o Cylinder
v -0.000000 -0.500000 -0.100000
v 0.000000 0.100000 -0.100000
v 0.019509 0.100000 -0.098078
v 0.019509 -0.500000 -0.098078
v 0.038269 0.100000 -0.092388
v 0.038268 -0.500000 -0.092388
v 0.055557 0.100000 -0.083147
v 0.055557 -0.500000 -0.083147
v 0.070711 0.100000 -0.070710
v 0.070710 -0.500000 -0.070710
v 0.083147 0.100000 -0.055557
v 0.083147 -0.500000 -0.055557
v 0.092388 0.100000 -0.038268
v 0.092388 -0.500000 -0.038268
v 0.098078 0.100000 -0.019509
v 0.098078 -0.500000 -0.019509
v 0.100000 0.100000 0.000000
v 0.100000 -0.500000 0.000000
v 0.098078 0.100000 0.019509
v 0.098078 -0.500000 0.019509
v 0.092388 0.100000 0.038269
v 0.092388 -0.500000 0.038269
v 0.083147 0.100000 0.055557
v 0.083147 -0.500000 0.055557
v 0.070710 0.100000 0.070711
v 0.070710 -0.500000 0.070711
v 0.055557 0.100000 0.083147
v 0.055557 -0.500000 0.083147
v 0.038268 0.100000 0.092388
v 0.038268 -0.500000 0.092388
v 0.019509 0.100000 0.098078
v 0.019509 -0.500000 0.098078
v -0.000000 0.100000 0.100000
v -0.000000 -0.500000 0.100000
v -0.019509 0.100000 0.098078
v -0.019509 -0.500000 0.098078
v -0.038269 0.100000 0.092388
v -0.038269 -0.500000 0.092388
v -0.055557 0.100000 0.083147
v -0.055557 -0.500000 0.083147
v -0.070711 0.100000 0.070710
v -0.070711 -0.500000 0.070710
v -0.083147 0.100000 0.055557
v -0.083147 -0.500000 0.055557
v -0.092388 0.100000 0.038268
v -0.092388 -0.500000 0.038268
v -0.098078 0.100000 0.019509
v -0.098079 -0.500000 0.019509
v -0.100000 0.100000 -0.000000
v -0.100000 -0.500000 -0.000000
v -0.098078 0.100000 -0.019509
v -0.098079 -0.500000 -0.019509
v -0.092388 0.100000 -0.038269
v -0.092388 -0.500000 -0.038269
v -0.083147 0.100000 -0.055557
v -0.083147 -0.500000 -0.055557
v -0.070710 0.100000 -0.070711
v -0.070711 -0.500000 -0.070711
v -0.055557 0.100000 -0.083147
v -0.055557 -0.500000 -0.083147
v -0.038268 0.100000 -0.092388
v -0.038268 -0.500000 -0.092388
v -0.019509 0.100000 -0.098078
v -0.019509 -0.500000 -0.098078
vn 0.098000 -0.000000 -0.995200
vn 0.290300 -0.000000 -0.956900
vn 0.471400 -0.000000 -0.881900
vn 0.634400 -0.000000 -0.773000
vn 0.773000 -0.000000 -0.634400
vn 0.881900 -0.000000 -0.471400
vn 0.956900 -0.000000 -0.290300
vn 0.995200 -0.000000 -0.098000
vn 0.995200 -0.000000 0.098000
vn 0.956900 -0.000000 0.290300
vn 0.881900 -0.000000 0.471400
vn 0.773000 -0.000000 0.634400
vn 0.634400 -0.000000 0.773000
vn 0.471400 -0.000000 0.881900
vn 0.290300 -0.000000 0.956900
vn 0.098000 -0.000000 0.995200
vn -0.098000 0.000000 0.995200
vn -0.290300 0.000000 0.956900
vn -0.471400 0.000000 0.881900
vn -0.634400 0.000000 0.773000
vn -0.773000 0.000000 0.634400
vn -0.881900 0.000000 0.471400
vn -0.956900 0.000000 0.290300
vn -0.995200 0.000000 0.098000
vn -0.995200 0.000000 -0.098000
vn -0.956900 0.000000 -0.290300
vn -0.881900 0.000000 -0.471400
vn -0.773000 0.000000 -0.634400
vn -0.634400 0.000000 -0.773000
vn -0.471400 0.000000 -0.881900
vn 0.000000 1.000000 -0.000000
vn -0.098000 0.000000 -0.995200
vn -0.290300 0.000000 -0.956900
vn 0.000000 -1.000000 0.000000
usemtl None
s 1
f 65//35 66//35 67//35 68//35
f 68//36 67//36 69//36 70//36
f 70//37 69//37 71//37 72//37
f 72//38 71//38 73//38 74//38
f 74//39 73//39 75//39 76//39
f 76//40 75//40 77//40 78//40
f 78//41 77//41 79//41 80//41
f 80//42 79//42 81//42 82//42
f 82//43 81//43 83//43 84//43
f 84//44 83//44 85//44 86//44
f 86//45 85//45 87//45 88//45
f 88//46 87//46 89//46 90//46
f 90//47 89//47 91//47 92//47
f 92//48 91//48 93//48 94//48
f 94//49 93//49 95//49 96//49
f 96//50 95//50 97//50 98//50
f 98//51 97//51 99//51 100//51
f 100//52 99//52 101//52 102//52
f 102//53 101//53 103//53 104//53
f 104//54 103//54 105//54 106//54
f 106//55 105//55 107//55 108//55
f 108//56 107//56 109//56 110//56
f 110//57 109//57 111//57 112//57
f 112//58 111//58 113//58 114//58
f 114//59 113//59 115//59 116//59
f 116//60 115//60 117//60 118//60
f 118//61 117//61 119//61 120//61
f 120//62 119//62 121//62 122//62
f 122//63 121//63 123//63 124//63
f 124//64 123//64 125//64 126//64
f 67//65 66//65 127//65 125//65 123//65 121//65 119//65 117//65 115//65 113//65 111//65 109//65 107//65 105//65 103//65 101//65 99//65 97//65 95//65 93//65 91//65 89//65 87//65 85//65 83//65 81//65 79//65 77//65 75//65 73//65 71//65 69//65
f 128//66 127//66 66//66 65//66
f 126//67 125//67 127//67 128//67
f 65//68 68//68 70//68 72//68 74//68 76//68 78//68 80//68 82//68 84//68 86//68 88//68 90//68 92//68 94//68 96//68 98//68 100//68 102//68 104//68 106//68 108//68 110//68 112//68 114//68 116//68 118//68 120//68 122//68 124//68 126//68 128//68
