# Blender v2.76 (sub 0) OBJ File: 'signpost.blend'
# www.blender.org
mtllib signPost.mtl
o Plane
v 0.046875 0.500000 -0.500000
v 0.046875 -0.500000 -0.500000
v 0.046875 -0.500000 -0.437500
v 0.046875 0.500000 -0.437500
v -0.046875 0.500000 -0.437500
v -0.046875 -0.500000 -0.437500
v 0.093750 0.500000 -0.500000
v 0.093750 -0.500000 -0.500000
v -0.046875 0.500000 -0.500000
v -0.046875 -0.500000 -0.500000
v -0.093750 -0.500000 -0.500000
v -0.093750 0.500000 -0.500000
vt 0.166667 1.000000
vt 0.166667 -0.000000
vt 0.333333 0.000000
vt 0.333333 1.000000
vt 0.666667 1.000000
vt 0.666667 -0.000000
vt 0.000000 1.000000
vt -0.000000 0.000000
vt 0.833333 1.000000
vt 0.833333 0.000000
vt 1.000000 -0.000000
vt 1.000000 1.000000
vn -1.000000 0.000000 0.000000
vn 0.000000 0.000000 -1.000000
vn 1.000000 -0.000000 -0.000000
usemtl None
s 1
f 1/1/1 2/2/1 3/3/1 4/4/1
f 5/5/2 4/4/2 3/3/2 6/6/2
f 2/2/2 1/1/2 7/7/2 8/8/2
f 9/9/2 10/10/2 11/11/2 12/12/2
f 10/10/3 9/9/3 5/5/3 6/6/3
