# Blender v2.76 (sub 0) OBJ File: 'street_light.blend'
# www.blender.org
mtllib street_light_1.mtl
o Cube.002_Cube.003
v -0.300000 -0.000000 0.300000
v -0.300000 0.000000 -0.300000
v -0.300000 -0.300000 -0.300000
v -0.300000 -0.300000 0.300000
v 0.300000 0.000000 -0.300000
v 0.300000 -0.300000 -0.300000
v 0.300000 -0.000000 0.300000
v 0.300000 -0.300000 0.300000
v -0.100000 -0.050000 0.900000
v -0.100000 -0.050000 0.300000
v -0.100000 -0.250000 0.300000
v -0.100000 -0.250000 0.900000
v 0.100000 -0.050000 0.300000
v 0.100000 -0.050000 0.900000
v 0.100000 -0.250000 0.900000
v 0.100000 -0.250000 0.300000
vt 1.000000 0.000000
vt 1.000000 1.000000
vt 0.500000 1.000000
vt 0.500000 -0.000000
vt 0.000000 1.000000
vt 0.000000 0.000000
vn -1.000000 0.000000 0.000000
vn 0.000000 0.000000 -1.000000
vn 1.000000 0.000000 0.000000
vn 0.000000 -0.000000 1.000000
vn 0.000000 -1.000000 -0.000000
vn 0.000000 1.000000 0.000000
usemtl None
s 1
f 1/1/1 2/2/1 3/3/1 4/4/1
f 2/3/2 5/4/2 6/1/2 3/2/2
f 5/1/3 7/2/3 8/3/3 6/4/3
f 7/1/4 1/2/4 4/3/4 8/4/4
f 4/3/5 3/5/5 6/6/5 8/4/5
f 7/4/6 5/1/6 2/2/6 1/3/6
f 9/1/1 10/2/1 11/3/1 12/4/1
f 13/1/3 14/2/3 15/3/3 16/4/3
f 12/1/5 11/2/5 16/3/5 15/4/5
f 14/1/6 13/2/6 10/3/6 9/4/6
