# Blender v2.76 (sub 0) OBJ File: 'traficlight.blend'
# www.blender.org
mtllib traffic_light.mtl
o Cube_Cube.001
v -0.000000 0.400000 -0.250000
v 0.000000 0.400000 -0.100000
v 0.019509 0.398079 -0.250000
v 0.019509 0.398079 -0.100000
v 0.038268 0.392388 -0.250000
v 0.038268 0.392388 -0.100000
v 0.055557 0.383147 -0.250000
v 0.055557 0.383147 -0.100000
v 0.070711 0.370711 -0.250000
v 0.070711 0.370711 -0.100000
v 0.083147 0.355557 -0.250000
v 0.083147 0.355557 -0.100000
v 0.092388 0.338268 -0.250000
v 0.092388 0.338268 -0.100000
v 0.098079 0.319509 -0.250000
v 0.098079 0.319509 -0.100000
v 0.100000 0.300000 -0.250000
v 0.100000 0.300000 -0.100000
v 0.098079 0.280491 -0.235500
v 0.098079 0.280491 -0.100000
v 0.092388 0.261732 -0.221077
v 0.092388 0.261732 -0.100000
v 0.083147 0.244443 -0.206759
v 0.083147 0.244443 -0.100000
v 0.070711 0.229289 -0.192592
v 0.070711 0.229289 -0.100000
v 0.055557 0.216853 -0.178663
v 0.055557 0.216853 -0.100000
v 0.038268 0.207612 -0.165164
v 0.038268 0.207612 -0.100000
v 0.019509 0.201921 -0.152663
v 0.019509 0.201921 -0.100000
v -0.000000 0.200000 -0.145163
v -0.000000 0.200000 -0.100000
v -0.019509 0.201921 -0.152663
v -0.019509 0.201921 -0.100000
v -0.038268 0.207612 -0.165164
v -0.038268 0.207612 -0.100000
v -0.055557 0.216853 -0.178663
v -0.055557 0.216853 -0.100000
v -0.070711 0.229289 -0.192592
v -0.070711 0.229289 -0.100000
v -0.083147 0.244443 -0.206759
v -0.083147 0.244443 -0.100000
v -0.092388 0.261732 -0.221077
v -0.092388 0.261732 -0.100000
v -0.098079 0.280491 -0.235500
v -0.098079 0.280491 -0.100000
v -0.100000 0.300000 -0.250000
v -0.100000 0.300000 -0.100000
v -0.098079 0.319509 -0.250000
v -0.098079 0.319509 -0.100000
v -0.092388 0.338268 -0.250000
v -0.092388 0.338268 -0.100000
v -0.083147 0.355557 -0.250000
v -0.083147 0.355557 -0.100000
v -0.070711 0.370711 -0.250000
v -0.070711 0.370711 -0.100000
v -0.055557 0.383147 -0.250000
v -0.055557 0.383147 -0.100000
v -0.038268 0.392388 -0.250000
v -0.038268 0.392388 -0.100000
v -0.019509 0.398079 -0.250000
v -0.019509 0.398079 -0.100000
v 0.200000 0.500000 0.100000
v -0.200000 0.500000 0.100000
v -0.200000 -0.500000 0.100000
v 0.200000 -0.500000 0.100000
v -0.200000 0.500000 -0.100000
v -0.200000 -0.500000 -0.100000
v 0.200000 0.500000 -0.100000
v 0.200000 -0.500000 -0.100000
v -0.000000 -0.200000 -0.250000
v 0.000000 -0.200000 -0.100000
v 0.019509 -0.201921 -0.250000
v 0.019509 -0.201921 -0.100000
v 0.038268 -0.207612 -0.250000
v 0.038268 -0.207612 -0.100000
v 0.055557 -0.216853 -0.250000
v 0.055557 -0.216853 -0.100000
v 0.070711 -0.229289 -0.250000
v 0.070711 -0.229289 -0.100000
v 0.083147 -0.244443 -0.250000
v 0.083147 -0.244443 -0.100000
v 0.092388 -0.261732 -0.250000
v 0.092388 -0.261732 -0.100000
v 0.098079 -0.280491 -0.250000
v 0.098079 -0.280491 -0.100000
v 0.100000 -0.300000 -0.250000
v 0.100000 -0.300000 -0.100000
v 0.098079 -0.319509 -0.235500
v 0.098079 -0.319509 -0.100000
v 0.092388 -0.338268 -0.221077
v 0.092388 -0.338268 -0.100000
v 0.083147 -0.355557 -0.206759
v 0.083147 -0.355557 -0.100000
v 0.070711 -0.370711 -0.192592
v 0.070711 -0.370711 -0.100000
v 0.055557 -0.383147 -0.178663
v 0.055557 -0.383147 -0.100000
v 0.038268 -0.392388 -0.165164
v 0.038268 -0.392388 -0.100000
v 0.019509 -0.398079 -0.152663
v 0.019509 -0.398079 -0.100000
v -0.000000 -0.400000 -0.145163
v -0.000000 -0.400000 -0.100000
v -0.019509 -0.398079 -0.152663
v -0.019509 -0.398079 -0.100000
v -0.038268 -0.392388 -0.165164
v -0.038268 -0.392388 -0.100000
v -0.055557 -0.383147 -0.178663
v -0.055557 -0.383147 -0.100000
v -0.070711 -0.370711 -0.192592
v -0.070711 -0.370711 -0.100000
v -0.083147 -0.355557 -0.206759
v -0.083147 -0.355557 -0.100000
v -0.092388 -0.338268 -0.221077
v -0.092388 -0.338268 -0.100000
v -0.098079 -0.319509 -0.235500
v -0.098079 -0.319509 -0.100000
v -0.100000 -0.300000 -0.250000
v -0.100000 -0.300000 -0.100000
v -0.098079 -0.280491 -0.250000
v -0.098079 -0.280491 -0.100000
v -0.092388 -0.261732 -0.250000
v -0.092388 -0.261732 -0.100000
v -0.083147 -0.244443 -0.250000
v -0.083147 -0.244443 -0.100000
v -0.070711 -0.229289 -0.250000
v -0.070711 -0.229289 -0.100000
v -0.055557 -0.216853 -0.250000
v -0.055557 -0.216853 -0.100000
v -0.038268 -0.207612 -0.250000
v -0.038268 -0.207612 -0.100000
v -0.019509 -0.201921 -0.250000
v -0.019509 -0.201921 -0.100000
v -0.000000 0.100000 -0.250000
v 0.000000 0.100000 -0.100000
v 0.019509 0.098079 -0.250000
v 0.019509 0.098079 -0.100000
v 0.038268 0.092388 -0.250000
v 0.038268 0.092388 -0.100000
v 0.055557 0.083147 -0.250000
v 0.055557 0.083147 -0.100000
v 0.070711 0.070711 -0.250000
v 0.070711 0.070711 -0.100000
v 0.083147 0.055557 -0.250000
v 0.083147 0.055557 -0.100000
v 0.092388 0.038268 -0.250000
v 0.092388 0.038268 -0.100000
v 0.098079 0.019509 -0.250000
v 0.098079 0.019509 -0.100000
v 0.100000 0.000000 -0.250000
v 0.100000 0.000000 -0.100000
v 0.098079 -0.019509 -0.235500
v 0.098079 -0.019509 -0.100000
v 0.092388 -0.038268 -0.221077
v 0.092388 -0.038268 -0.100000
v 0.083147 -0.055557 -0.206759
v 0.083147 -0.055557 -0.100000
v 0.070711 -0.070711 -0.192592
v 0.070711 -0.070711 -0.100000
v 0.055557 -0.083147 -0.178663
v 0.055557 -0.083147 -0.100000
v 0.038268 -0.092388 -0.165164
v 0.038268 -0.092388 -0.100000
v 0.019509 -0.098079 -0.152663
v 0.019509 -0.098079 -0.100000
v -0.000000 -0.100000 -0.145163
v -0.000000 -0.100000 -0.100000
v -0.019509 -0.098079 -0.152663
v -0.019509 -0.098079 -0.100000
v -0.038268 -0.092388 -0.165164
v -0.038268 -0.092388 -0.100000
v -0.055557 -0.083147 -0.178663
v -0.055557 -0.083147 -0.100000
v -0.070711 -0.070711 -0.192592
v -0.070711 -0.070711 -0.100000
v -0.083147 -0.055557 -0.206759
v -0.083147 -0.055557 -0.100000
v -0.092388 -0.038268 -0.221077
v -0.092388 -0.038268 -0.100000
v -0.098079 -0.019509 -0.235500
v -0.098079 -0.019509 -0.100000
v -0.100000 0.000000 -0.250000
v -0.100000 0.000000 -0.100000
v -0.098079 0.019509 -0.250000
v -0.098079 0.019509 -0.100000
v -0.092388 0.038268 -0.250000
v -0.092388 0.038268 -0.100000
v -0.083147 0.055557 -0.250000
v -0.083147 0.055557 -0.100000
v -0.070711 0.070711 -0.250000
v -0.070711 0.070711 -0.100000
v -0.055557 0.083147 -0.250000
v -0.055557 0.083147 -0.100000
v -0.038268 0.092388 -0.250000
v -0.038268 0.092388 -0.100000
v -0.019509 0.098079 -0.250000
v -0.019509 0.098079 -0.100000
vt 0.638315 0.332455
vt 0.749426 0.332455
vt 0.749426 0.347103
vt 0.638315 0.347103
vt 0.749426 0.361188
vt 0.638315 0.361188
vt 0.749426 0.374169
vt 0.638315 0.374169
vt 0.749426 0.385547
vt 0.638315 0.385547
vt 0.749426 0.394884
vt 0.638315 0.394884
vt 0.749426 0.401823
vt 0.638315 0.401823
vt 0.638722 0.405399
vt 0.749833 0.405399
vt 0.749833 0.413957
vt 0.638722 0.413957
vt 0.749833 0.424686
vt 0.638722 0.424687
vt 0.749833 0.437176
vt 0.649462 0.437176
vt 0.749833 0.450944
vt 0.660146 0.450944
vt 0.749833 0.465464
vt 0.670752 0.465464
vt 0.749833 0.480175
vt 0.681246 0.480175
vt 0.749833 0.494514
vt 0.691564 0.494514
vt 0.749833 0.507929
vt 0.701564 0.507929
vt 0.749833 0.519905
vt 0.710823 0.519905
vt 0.749833 0.529981
vt 0.716378 0.529981
vt 0.715802 0.136435
vt 0.749256 0.136435
vt 0.749256 0.146510
vt 0.710246 0.146510
vt 0.749256 0.158486
vt 0.700987 0.158486
vt 0.749256 0.171901
vt 0.690987 0.171901
vt 0.749256 0.186240
vt 0.680669 0.186240
vt 0.749256 0.200952
vt 0.670176 0.200952
vt 0.749256 0.215471
vt 0.659570 0.215471
vt 0.749256 0.229240
vt 0.648886 0.229240
vt 0.749256 0.241729
vt 0.638145 0.241729
vt 0.749256 0.252458
vt 0.638145 0.252458
vt 0.749256 0.261016
vt 0.638145 0.261016
vt 0.638315 0.263087
vt 0.749426 0.263087
vt 0.749426 0.270025
vt 0.638315 0.270025
vt 0.749426 0.279363
vt 0.638315 0.279363
vt 0.749426 0.290740
vt 0.638315 0.290740
vt 0.749426 0.303722
vt 0.638315 0.303722
vt 0.638315 0.317807
vt 0.749426 0.317807
vt 0.500000 0.600000
vt 1.000000 0.600000
vt 1.000000 1.000000
vt 0.500000 1.000000
vt -0.000000 1.000000
vt -0.000000 0.000000
vt 0.500000 0.000000
vt 0.749792 0.332824
vt 0.638681 0.332824
vt 0.638681 0.318176
vt 0.749792 0.318176
vt 0.638681 0.304090
vt 0.749792 0.304090
vt 0.638681 0.291110
vt 0.749792 0.291110
vt 0.638681 0.279732
vt 0.749792 0.279732
vt 0.638681 0.270394
vt 0.749792 0.270394
vt 0.638681 0.263455
vt 0.749792 0.263455
vt 0.638113 0.404735
vt 0.749224 0.404735
vt 0.749224 0.413293
vt 0.638113 0.413293
vt 0.749224 0.424022
vt 0.638113 0.424022
vt 0.749224 0.436511
vt 0.648854 0.436511
vt 0.749224 0.450280
vt 0.659537 0.450280
vt 0.749224 0.464799
vt 0.670144 0.464799
vt 0.749224 0.479511
vt 0.680637 0.479511
vt 0.749224 0.493850
vt 0.690955 0.493850
vt 0.749224 0.507265
vt 0.700955 0.507265
vt 0.749224 0.519240
vt 0.710214 0.519241
vt 0.749224 0.529316
vt 0.715770 0.529316
vt 0.716208 0.135434
vt 0.749662 0.135434
vt 0.749662 0.145510
vt 0.710652 0.145510
vt 0.749662 0.157485
vt 0.701393 0.157485
vt 0.749662 0.170900
vt 0.691393 0.170900
vt 0.749662 0.185239
vt 0.681076 0.185239
vt 0.749662 0.199951
vt 0.670582 0.199951
vt 0.749662 0.214470
vt 0.659976 0.214470
vt 0.749662 0.228239
vt 0.649292 0.228239
vt 0.749662 0.240728
vt 0.638551 0.240728
vt 0.749662 0.251457
vt 0.638551 0.251457
vt 0.749662 0.260015
vt 0.638551 0.260015
vt 0.749792 0.402192
vt 0.638681 0.402192
vt 0.638681 0.395253
vt 0.749792 0.395253
vt 0.638681 0.385916
vt 0.749792 0.385916
vt 0.638681 0.374538
vt 0.749792 0.374538
vt 0.638681 0.361557
vt 0.749792 0.361557
vt 0.749792 0.347472
vt 0.638681 0.347472
vt 0.749719 0.332860
vt 0.638608 0.332860
vt 0.638608 0.318212
vt 0.749719 0.318212
vt 0.638608 0.304127
vt 0.749719 0.304127
vt 0.638608 0.291146
vt 0.749719 0.291146
vt 0.638608 0.279768
vt 0.749719 0.279768
vt 0.638608 0.270431
vt 0.749719 0.270431
vt 0.638608 0.263492
vt 0.749719 0.263492
vt 0.638579 0.404951
vt 0.749690 0.404951
vt 0.749690 0.413509
vt 0.638579 0.413509
vt 0.749690 0.424239
vt 0.638579 0.424239
vt 0.749690 0.436728
vt 0.649320 0.436728
vt 0.749690 0.450497
vt 0.660003 0.450497
vt 0.749690 0.465016
vt 0.670609 0.465016
vt 0.749690 0.479727
vt 0.681103 0.479727
vt 0.749690 0.494066
vt 0.691421 0.494066
vt 0.749690 0.507481
vt 0.701421 0.507481
vt 0.749690 0.519457
vt 0.710680 0.519457
vt 0.749690 0.529533
vt 0.716236 0.529533
vt 0.716405 0.135480
vt 0.749860 0.135480
vt 0.749860 0.145556
vt 0.710850 0.145556
vt 0.749860 0.157532
vt 0.701590 0.157532
vt 0.749860 0.170947
vt 0.691590 0.170947
vt 0.749860 0.185286
vt 0.681273 0.185286
vt 0.749860 0.199997
vt 0.670779 0.199997
vt 0.749860 0.214517
vt 0.660173 0.214517
vt 0.749860 0.228285
vt 0.649489 0.228285
vt 0.749860 0.240774
vt 0.638749 0.240774
vt 0.749860 0.251504
vt 0.638749 0.251504
vt 0.749860 0.260062
vt 0.638749 0.260062
vt 0.749719 0.402229
vt 0.638608 0.402229
vt 0.638608 0.395290
vt 0.749719 0.395290
vt 0.638608 0.385952
vt 0.749719 0.385952
vt 0.638608 0.374575
vt 0.749719 0.374575
vt 0.638608 0.361594
vt 0.749719 0.361594
vt 0.749719 0.347508
vt 0.638608 0.347508
vn 0.098000 0.995200 0.000000
vn 0.290300 0.956900 0.000000
vn 0.471400 0.881900 0.000000
vn 0.634400 0.773000 -0.000000
vn 0.773000 0.634400 -0.000000
vn 0.881900 0.471400 -0.000000
vn 0.956900 0.290300 -0.000000
vn 0.995200 0.098000 -0.000000
vn 0.995200 -0.098000 -0.000000
vn 0.956900 -0.290300 -0.000000
vn 0.881900 -0.471400 -0.000000
vn 0.773000 -0.634400 -0.000000
vn 0.634400 -0.773000 0.000000
vn 0.471400 -0.881900 0.000000
vn 0.290300 -0.956900 0.000000
vn 0.098000 -0.995200 0.000000
vn -0.098000 -0.995200 0.000000
vn -0.290300 -0.956900 0.000000
vn -0.471400 -0.881900 0.000000
vn -0.634400 -0.773000 0.000000
vn -0.773000 -0.634400 -0.000000
vn -0.881900 -0.471400 0.000000
vn -0.956900 -0.290300 0.000000
vn -0.995200 -0.098000 0.000000
vn -0.995200 0.098000 0.000000
vn -0.956900 0.290300 0.000000
vn -0.881900 0.471400 0.000000
vn -0.773000 0.634400 0.000000
vn -0.634400 0.773000 0.000000
vn -0.471400 0.881900 0.000000
vn -0.098000 0.995200 0.000000
vn -0.290300 0.956900 0.000000
vn 0.000000 -0.000000 1.000000
vn -1.000000 0.000000 0.000000
vn -0.000000 0.000000 -1.000000
vn 1.000000 -0.000000 -0.000000
vn -0.000000 -1.000000 0.000000
vn 0.000000 1.000000 -0.000000
usemtl None
s off
f 1/1/1 2/2/1 4/3/1 3/4/1
f 3/4/2 4/3/2 6/5/2 5/6/2
f 5/6/3 6/5/3 8/7/3 7/8/3
f 7/8/4 8/7/4 10/9/4 9/10/4
f 9/10/5 10/9/5 12/11/5 11/12/5
f 11/12/6 12/11/6 14/13/6 13/14/6
f 13/15/7 14/16/7 16/17/7 15/18/7
f 15/18/8 16/17/8 18/19/8 17/20/8
f 17/20/9 18/19/9 20/21/9 19/22/9
f 19/22/10 20/21/10 22/23/10 21/24/10
f 21/24/11 22/23/11 24/25/11 23/26/11
f 23/26/12 24/25/12 26/27/12 25/28/12
f 25/28/13 26/27/13 28/29/13 27/30/13
f 27/30/14 28/29/14 30/31/14 29/32/14
f 29/32/15 30/31/15 32/33/15 31/34/15
f 31/34/16 32/33/16 34/35/16 33/36/16
f 33/37/17 34/38/17 36/39/17 35/40/17
f 35/40/18 36/39/18 38/41/18 37/42/18
f 37/42/19 38/41/19 40/43/19 39/44/19
f 39/44/20 40/43/20 42/45/20 41/46/20
f 41/46/21 42/45/21 44/47/21 43/48/21
f 43/48/22 44/47/22 46/49/22 45/50/22
f 45/50/23 46/49/23 48/51/23 47/52/23
f 47/52/24 48/51/24 50/53/24 49/54/24
f 49/54/25 50/53/25 52/55/25 51/56/25
f 51/56/26 52/55/26 54/57/26 53/58/26
f 53/59/27 54/60/27 56/61/27 55/62/27
f 55/62/28 56/61/28 58/63/28 57/64/28
f 57/64/29 58/63/29 60/65/29 59/66/29
f 59/66/30 60/65/30 62/67/30 61/68/30
f 63/69/31 64/70/31 2/2/31 1/1/31
f 61/68/32 62/67/32 64/70/32 63/69/32
f 65/71/33 66/72/33 67/73/33 68/74/33
f 66/73/34 69/74/34 70/71/34 67/72/34
f 69/74/35 71/75/35 72/76/35 70/77/35
f 71/71/36 65/72/36 68/73/36 72/74/36
f 68/72/37 67/71/37 70/74/37 72/73/37
f 71/72/38 69/73/38 66/74/38 65/71/38
f 73/78/1 74/79/1 76/80/1 75/81/1
f 75/81/2 76/80/2 78/82/2 77/83/2
f 77/83/3 78/82/3 80/84/3 79/85/3
f 79/85/4 80/84/4 82/86/4 81/87/4
f 81/87/5 82/86/5 84/88/5 83/89/5
f 83/89/6 84/88/6 86/90/6 85/91/6
f 85/92/7 86/93/7 88/94/7 87/95/7
f 87/95/8 88/94/8 90/96/8 89/97/8
f 89/97/9 90/96/9 92/98/9 91/99/9
f 91/99/10 92/98/10 94/100/10 93/101/10
f 93/101/11 94/100/11 96/102/11 95/103/11
f 95/103/12 96/102/12 98/104/12 97/105/12
f 97/105/13 98/104/13 100/106/13 99/107/13
f 99/107/14 100/106/14 102/108/14 101/109/14
f 101/109/15 102/108/15 104/110/15 103/111/15
f 103/111/16 104/110/16 106/112/16 105/113/16
f 105/114/17 106/115/17 108/116/17 107/117/17
f 107/117/18 108/116/18 110/118/18 109/119/18
f 109/119/19 110/118/19 112/120/19 111/121/19
f 111/121/20 112/120/20 114/122/20 113/123/20
f 113/123/21 114/122/21 116/124/21 115/125/21
f 115/125/22 116/124/22 118/126/22 117/127/22
f 117/127/23 118/126/23 120/128/23 119/129/23
f 119/129/24 120/128/24 122/130/24 121/131/24
f 121/131/25 122/130/25 124/132/25 123/133/25
f 123/133/26 124/132/26 126/134/26 125/135/26
f 125/136/27 126/137/27 128/138/27 127/139/27
f 127/139/28 128/138/28 130/140/28 129/141/28
f 129/141/29 130/140/29 132/142/29 131/143/29
f 131/143/30 132/142/30 134/144/30 133/145/30
f 135/146/31 136/147/31 74/79/31 73/78/31
f 133/145/32 134/144/32 136/147/32 135/146/32
f 137/148/1 138/149/1 140/150/1 139/151/1
f 139/151/2 140/150/2 142/152/2 141/153/2
f 141/153/3 142/152/3 144/154/3 143/155/3
f 143/155/4 144/154/4 146/156/4 145/157/4
f 145/157/5 146/156/5 148/158/5 147/159/5
f 147/159/6 148/158/6 150/160/6 149/161/6
f 149/162/7 150/163/7 152/164/7 151/165/7
f 151/165/8 152/164/8 154/166/8 153/167/8
f 153/167/9 154/166/9 156/168/9 155/169/9
f 155/169/10 156/168/10 158/170/10 157/171/10
f 157/171/11 158/170/11 160/172/11 159/173/11
f 159/173/12 160/172/12 162/174/12 161/175/12
f 161/175/13 162/174/13 164/176/13 163/177/13
f 163/177/14 164/176/14 166/178/14 165/179/14
f 165/179/15 166/178/15 168/180/15 167/181/15
f 167/181/16 168/180/16 170/182/16 169/183/16
f 169/184/17 170/185/17 172/186/17 171/187/17
f 171/187/18 172/186/18 174/188/18 173/189/18
f 173/189/19 174/188/19 176/190/19 175/191/19
f 175/191/20 176/190/20 178/192/20 177/193/20
f 177/193/21 178/192/21 180/194/21 179/195/21
f 179/195/22 180/194/22 182/196/22 181/197/22
f 181/197/23 182/196/23 184/198/23 183/199/23
f 183/199/24 184/198/24 186/200/24 185/201/24
f 185/201/25 186/200/25 188/202/25 187/203/25
f 187/203/26 188/202/26 190/204/26 189/205/26
f 189/206/27 190/207/27 192/208/27 191/209/27
f 191/209/28 192/208/28 194/210/28 193/211/28
f 193/211/29 194/210/29 196/212/29 195/213/29
f 195/213/30 196/212/30 198/214/30 197/215/30
f 199/216/31 200/217/31 138/149/31 137/148/31
f 197/215/32 198/214/32 200/217/32 199/216/32
