# Blender v2.76 (sub 0) OBJ File: 'whole_slope.blend'
# www.blender.org
mtllib whole_slope.mtl
o Cube
v -0.500000 -0.500000 0.500000
v -0.500000 0.500000 0.500000
v -0.500000 -0.500000 -0.500000
v -0.500000 0.000000 -0.500000
v 0.500000 -0.500000 0.500000
v 0.500000 0.500000 0.500000
v 0.500000 -0.500000 -0.500000
v 0.500000 0.000000 -0.500000
vt 0.333333 1.000000
vt 0.166667 0.500000
vt 0.166667 -0.000000
vt 0.333333 0.000000
vt -0.000000 0.500000
vt 0.000000 -0.000000
vt 0.666667 0.500000
vt 0.500000 1.000000
vt 0.500000 0.000000
vt 0.666667 0.000000
vt 1.000000 1.000000
vt 0.833333 1.000000
vt 0.833333 -0.000000
vt 1.000000 -0.000000
vt 0.666667 1.000000
vn -1.000000 0.000000 0.000000
vn 0.000000 0.000000 -1.000000
vn 1.000000 0.000000 0.000000
vn 0.000000 0.000000 1.000000
vn 0.000000 -1.000000 0.000000
vn 0.000000 0.894400 -0.447200
usemtl None
s off
f 2/1/1 4/2/1 3/3/1 1/4/1
f 4/2/2 8/5/2 7/6/2 3/3/2
f 8/7/3 6/8/3 5/9/3 7/10/3
f 6/11/4 2/12/4 1/13/4 5/14/4
f 1/9/5 3/8/5 7/1/5 5/4/5
f 6/15/6 8/10/6 4/13/6 2/12/6
